<?xml version="1.0" encoding="UTF-8"?><svg id="Objects" xmlns="http://www.w3.org/2000/svg" viewBox="0 0 480.35 480.35"><defs><style>.cls-1{fill:#f97316;}</style></defs><path class="cls-1" d="M70.35,410.01C24.98,364.64,0,304.33,0,240.18c0-64.15,24.98-124.47,70.35-169.83C115.71,24.98,176.02,0,240.18,0s124.47,24.98,169.83,70.35c45.36,45.36,70.35,105.68,70.35,169.83,0,64.15-24.98,124.47-70.35,169.83-45.36,45.36-105.68,70.35-169.83,70.35-64.15,0-124.47-24.98-169.83-70.35Z"/><ellipse cx="314.99" cy="197.38" rx="31.35" ry="41.42"/><ellipse cx="158.9" cy="197.38" rx="31.35" ry="41.42"/><path d="M324.35,354.67c-2.69,0-5.4-.86-7.69-2.63-20.18-15.63-45.91-23.56-76.49-23.56s-56.3,7.93-76.49,23.56c-5.49,4.25-13.38,3.25-17.63-2.24s-3.25-13.38,2.24-17.63c24.69-19.12,55.6-28.82,91.88-28.82s67.19,9.7,91.88,28.82c5.49,4.25,6.49,12.14,2.24,17.63-2.48,3.2-6.19,4.87-9.94,4.87Z"/></svg>