<?xml version="1.0" encoding="UTF-8"?><svg id="Objects" xmlns="http://www.w3.org/2000/svg" viewBox="0 0 480.35 480.35"><defs><style>.cls-1{fill:#facc15;}</style></defs><path class="cls-1" d="M70.35,410.01C24.98,364.64,0,304.33,0,240.18S24.98,115.71,70.35,70.35C115.71,24.98,176.02,0,240.18,0s124.47,24.98,169.83,70.35c45.36,45.36,70.35,105.68,70.35,169.83,0,64.15-24.98,124.47-70.35,169.83-45.36,45.36-105.68,70.35-169.83,70.35-64.15,0-124.47-24.98-169.83-70.35Z"/><ellipse cx="314.99" cy="197.38" rx="31.35" ry="41.42"/><ellipse cx="158.9" cy="197.38" rx="31.35" ry="41.42"/><path d="M281.96,337.6h-83.56c-6.94,0-12.57-5.63-12.57-12.57s5.63-12.57,12.57-12.57h83.56c6.94,0,12.57,5.63,12.57,12.57s-5.63,12.57-12.57,12.57Z"/></svg>