<?xml version="1.0" encoding="UTF-8"?><svg id="Objects" xmlns="http://www.w3.org/2000/svg" viewBox="0 0 480.35 480.35"><defs><style>.cls-1{fill:#dc2626;}</style></defs><path class="cls-1" d="M70.35,410.01C24.98,364.64,0,304.33,0,240.18c0-64.15,24.98-124.47,70.35-169.83C115.71,24.98,176.02,0,240.18,0s124.47,24.98,169.83,70.35c45.36,45.36,70.35,105.68,70.35,169.83,0,64.15-24.98,124.47-70.35,169.83-45.36,45.36-105.68,70.35-169.83,70.35-64.15,0-124.47-24.98-169.83-70.35Z"/><ellipse cx="314.99" cy="197.38" rx="31.35" ry="41.42"/><ellipse cx="158.9" cy="197.38" rx="31.35" ry="41.42"/><path d="M146.82,343.43c14.08-36.93,55.25-57.53,93.35-57.04,28.9-.2,59.36,11.06,78.66,33.09,6.19,7.12,11.45,15.08,14.69,23.96,2.56,7.07-1.09,14.88-8.16,17.44-3.46,1.29-6.93.91-10.18-.26-5.37-1.79-10.5-3.83-15.77-5.6-36.59-12.36-76.67-12.89-113.59-1.58-7.44,2.25-14.75,5.31-22.23,7.66-10.59,3.35-20.66-7.34-16.77-17.66h0Z"/></svg>