<?xml version="1.0" encoding="UTF-8"?><svg id="Objects" xmlns="http://www.w3.org/2000/svg" viewBox="0 0 480.35 480.35"><defs><style>.cls-1{fill:#43af64;}</style></defs><path class="cls-1" d="M70.35,410.01C24.98,364.64,0,304.33,0,240.18c0-64.15,24.98-124.47,70.35-169.83C115.71,24.98,176.02,0,240.18,0c64.15,0,124.47,24.98,169.83,70.35,45.36,45.36,70.35,105.68,70.35,169.83,0,64.15-24.98,124.47-70.35,169.83-45.36,45.36-105.68,70.35-169.83,70.35-64.15,0-124.47-24.98-169.83-70.35Z"/><ellipse cx="314.99" cy="197.38" rx="31.35" ry="41.42"/><ellipse cx="158.9" cy="197.38" rx="31.35" ry="41.42"/><path d="M165.17,298.95c7.53,1.6,14.76,3.56,22.18,5.06,18.18,3.72,34.58,4.74,52.83,4.8,23.45.18,45.98-2.48,68.94-8.48,2.44-.64,5.25-1.28,7.9-1.71,7.82-1.39,15.29,3.82,16.68,11.64.35,1.99.26,4.02-.17,5.87-1.16,4.79-2.99,9.29-5.21,13.68-6.95,13.35-17.49,24.35-30.36,32.51-25.87,16.32-58.2,20.05-87.55,12.25-24.26-6.43-46.82-22.28-58.38-44.76-2.22-4.4-4.05-8.9-5.21-13.68-2.58-10.99,7.65-20.19,18.35-17.18h0Z"/></svg>