<?xml version="1.0" encoding="UTF-8"?><svg id="Objects" xmlns="http://www.w3.org/2000/svg" viewBox="0 0 480.35 480.35"><defs><style>.cls-1{fill:#a3e635;}</style></defs><path class="cls-1" d="M70.35,410.01C24.98,364.64,0,304.33,0,240.18c0-64.15,24.98-124.47,70.35-169.83C115.71,24.98,176.02,0,240.18,0c64.15,0,124.47,24.98,169.83,70.35,45.36,45.36,70.35,105.68,70.35,169.83,0,64.15-24.98,124.47-70.35,169.83-45.36,45.36-105.68,70.35-169.83,70.35-64.15,0-124.47-24.98-169.83-70.35Z"/><ellipse cx="314.99" cy="197.38" rx="31.35" ry="41.42"/><ellipse cx="158.9" cy="197.38" rx="31.35" ry="41.42"/><path d="M240.18,364.59c-37.04,0-68.44-13.49-93.35-40.08-4.74-5.07-4.48-13.02.58-17.76,5.07-4.74,13.02-4.48,17.76.58,19.97,21.32,45.2,32.13,75.01,32.13s55.04-10.81,75.01-32.13c4.75-5.07,12.7-5.33,17.76-.58,5.07,4.74,5.33,12.7.58,17.76-24.91,26.6-56.32,40.08-93.36,40.08Z"/></svg>